<svg version="1.2" xmlns="http://www.w3.org/2000/svg" viewBox="0 0 1784 184" width="1784" height="184">
	<style>
		tspan { white-space:pre } 
		.s0 { fill: #47ff5f } 
	</style>
	<path id="BARD ENGINE copy" fill-rule="evenodd" fill="#47ff5f" class="s0" d="m0.14 1.9h75.53q18.19 0 30.96 5.53 13.11 5.12 19.97 15.11 7.04 9.88 7.04 23.96 0 15.8-8.83 26.72-8.66 10.68-24.15 13.81 19.21 2.88 30.04 14.87 10.85 11.97 10.85 30.45 0 15.26-8.04 26.38-7.54 10.69-22.01 16.64-14.41 5.63-34.73 5.63h-76.63zm20.45 78.08h54.14q17.92 0 27.81-7.78 10.18-8.26 10.18-22.73 0-14.3-10.18-22.07-9.89-7.87-27.81-7.71h-54.14zm0 83.23h54.14q21.75 0.16 33.69-8.32 12.31-8.89 12.31-24.83 0-15.38-12.31-23.81-11.94-8.73-33.69-8.58h-54.14zm136.56 17.79l80.2-179.1h21.12l80.13 179.1h-22l-20.37-46.55h-97.27l-20.18 46.55zm90.21-158.19l-40.75 94.01h81.9zm119.77-20.91h68.03q33.84 0 52.03 15.78 18.66 15.65 18.66 44.06 0 29.4-18.66 45.79-9.05 8.09-21.98 12.16l42.52 61.31h-23.45l-37.57-57.73q-5.53 0.52-11.55 0.52h-47.58v57.21h-20.45zm20.45 104.1h47.58q24.38 0 37.7-11.01 13.48-11.15 13.48-32.78 0-20.97-13.48-31.73-13.32-10.79-37.7-10.79h-47.58zm164.55-104.09h72.28q19.72 0 36.52 6.81 16.8 6.7 29.18 18.95 12.55 12.12 19.46 28.67 7.11 16.11 7.11 35.17 0 19.06-7.11 35.49-6.91 15.98-19.46 28.41-12.54 12.09-29.69 18.95-16.75 6.65-36.48 6.65h-71.81zm20.45 161.31h52.3q14.95 0 27.6-5.25 13.1-5.46 22.79-15.1 9.74-9.9 15.1-22.79 5.71-13.19 5.71-28.41 0-15.38-5.71-28.42-5.52-13.14-15.36-22.78-9.74-10.06-22.78-15.36-13.03-5.41-28.13-5.41h-51.52zm243.55 17.79v-179.1h121.73v17.79h-101.28v61.59h90.44v17.63h-90.44v64.3h104.55v17.79zm167 0v-179.1h21.13l107.75 148v-148h20.14v179.1h-21.13l-107.44-147.62v147.62zm346.54-156.04l-11.77 13.96q-10.74-10.02-25.02-15.36-14.11-5.77-29.18-5.77-15.42 0-28.93 5.77-13.13 5.66-23.3 15.88-10.14 9.89-15.87 23.29-5.65 13.1-5.65 28.42 0 15.32 5.65 28.93 5.73 13.14 15.87 23.55 10.17 9.95 23.56 15.87 13.41 5.52 28.82 5.52 14.14 0 28.01-5.26 10.44-4.1 19.18-10.22v-56.19h18.11v65.65q-8.66 7.01-19.63 12.53-10.94 5.24-23.04 8.19-11.79 2.83-23.88 2.83-19.57 0-36.53-6.92-16.79-7.16-29.7-19.46-12.74-12.78-19.97-29.18-7.11-16.84-7.11-35.84 0-18.9 7.11-35.33 7.38-16.5 20.23-28.93 12.97-12.56 29.95-19.45 17.39-7.03 37.12-7.03 12.4 0 24.06 3.19 12.08 2.76 22.53 8.19 10.88 5.43 19.38 13.17zm49.46 156.04v-179.1h20.45v179.1zm75 0v-179.1h21.13l107.75 148v-148h20.14v179.1h-21.13l-107.44-147.62v147.62zm203 0v-179.1h121.73v17.79h-101.28v61.59h90.44v17.63h-90.44v64.3h104.55v17.79z"/>
</svg>
